<?xml version="1.0" standalone="no"?><!-- Generator: Gravit.io --><svg xmlns="http://www.w3.org/2000/svg" xmlns:xlink="http://www.w3.org/1999/xlink" style="isolation:isolate" viewBox="159.8 -578 2770.2 812.045" width="2770.2" height="812.045"><defs><clipPath id="_clipPath_nohaQyXE5l7ZsSqikgVQsrqP2mniSY7S"><rect x="159.8" y="-578" width="2770.2" height="812.045"/></clipPath></defs><g clip-path="url(#_clipPath_nohaQyXE5l7ZsSqikgVQsrqP2mniSY7S)"><g><rect x="243.288" y="-578" width="2686.712" height="812.045" transform="matrix(1,0,0,1,0,0)" fill="rgb(255,255,255)"/><g><g><rect x="159.8" y="-455.477" width="552.827" height="567" transform="matrix(1,0,0,1,0,0)" fill="none"/><g><path d=" M 406.709 -367.076 C 436.213 -272.104 332.061 -178.606 332.061 -178.606 C 204.292 -47.561 362.212 23.116 362.212 23.116 L 405.321 23.116 C 405.321 23.116 268.22 -82.165 411.065 -192.588 C 411.065 -192.588 451.267 -225.718 448.392 -261.059 C 448.392 -261.059 520.89 -172.709 485 -105.723 C 485 -105.723 520.177 -110.872 523.765 -134.431 C 523.765 -134.431 574.011 -14.442 474.95 23.11 L 521.57 23.11 C 726.851 -150.624 406.709 -367.076 406.709 -367.076 Z " fill="rgb(244,140,36)"/><path d=" M 479.627 -50.129 C 477.963 -39.175 461.605 -36.782 461.605 -36.782 C 478.3 -67.933 444.589 -109.006 444.589 -109.006 C 445.921 -92.575 427.23 -77.169 427.23 -77.169 C 360.813 -25.827 424.56 23.122 424.56 23.122 L 456.928 23.122 C 502.989 5.664 479.627 -50.129 479.627 -50.129 Z " fill="rgb(244,140,36)"/></g></g><g><path d=" M 886.62 -199.637 Q 886.62 -180.469 878.867 -163.822 Q 871.115 -147.176 857.773 -134.902 Q 844.432 -122.627 826.403 -115.733 Q 808.375 -108.839 788.182 -108.839 L 740.586 -108.839 L 740.586 -21.068 L 684.697 -21.068 L 684.697 -289.762 L 788.182 -289.762 Q 808.375 -289.762 826.403 -282.868 Q 844.432 -275.974 857.773 -263.868 Q 871.115 -251.762 878.867 -235.283 Q 886.62 -218.805 886.62 -199.637 Z  M 831.091 -200.31 Q 831.091 -210.734 826.944 -219.814 Q 822.798 -228.894 815.586 -235.62 Q 808.375 -242.345 798.639 -246.381 Q 788.904 -250.416 777.726 -250.416 L 740.586 -250.416 L 740.586 -148.858 L 777.726 -148.858 Q 788.904 -148.858 798.639 -153.061 Q 808.375 -157.265 815.586 -164.327 Q 822.798 -171.389 826.944 -180.637 Q 831.091 -189.885 831.091 -200.31 Z  M 1065.465 -195.265 L 1037.701 -154.238 Q 1030.129 -161.973 1020.934 -167.858 Q 1011.739 -173.743 1002.364 -173.743 Q 997.316 -173.743 991.367 -171.557 Q 985.417 -169.371 980.189 -164.327 Q 974.96 -159.282 971.355 -151.043 Q 967.749 -142.804 967.749 -130.698 L 967.749 -21.068 L 915.466 -21.068 L 915.466 -215.443 L 967.749 -215.443 L 967.749 -194.593 Q 977.124 -207.035 988.482 -213.761 Q 999.84 -220.487 1013.903 -220.487 Q 1027.604 -220.487 1040.765 -213.593 Q 1053.926 -206.699 1065.465 -195.265 Z  M 1298.757 -118.255 Q 1298.757 -96.397 1290.103 -77.733 Q 1281.45 -59.069 1266.305 -45.449 Q 1251.161 -31.829 1230.789 -23.927 Q 1210.416 -16.024 1187.339 -16.024 Q 1164.263 -16.024 1144.07 -23.927 Q 1123.878 -31.829 1108.734 -45.617 Q 1093.59 -59.405 1084.936 -78.069 Q 1076.282 -96.733 1076.282 -118.255 Q 1076.282 -139.442 1085.116 -158.105 Q 1093.95 -176.769 1109.094 -190.725 Q 1124.239 -204.681 1144.431 -212.584 Q 1164.623 -220.487 1187.339 -220.487 Q 1210.416 -220.487 1230.789 -212.584 Q 1251.161 -204.681 1266.305 -191.062 Q 1281.45 -177.442 1290.103 -158.61 Q 1298.757 -139.778 1298.757 -118.255 Z  M 1246.834 -118.255 Q 1246.834 -130.698 1242.147 -141.459 Q 1237.459 -152.22 1229.346 -160.291 Q 1221.233 -168.362 1210.416 -172.902 Q 1199.599 -177.442 1187.339 -177.442 Q 1175.08 -177.442 1164.263 -172.902 Q 1153.445 -168.362 1145.332 -160.291 Q 1137.219 -152.22 1132.532 -141.459 Q 1127.844 -130.698 1127.844 -118.255 Q 1127.844 -105.813 1132.532 -95.052 Q 1137.219 -84.29 1145.332 -76.219 Q 1153.445 -68.149 1164.263 -63.609 Q 1175.08 -59.069 1187.339 -59.069 Q 1199.599 -59.069 1210.416 -63.609 Q 1221.233 -68.149 1229.346 -76.219 Q 1237.459 -84.29 1242.147 -95.052 Q 1246.834 -105.813 1246.834 -118.255 Z  M 1639.501 -21.068 L 1587.939 -21.068 L 1587.939 -137.087 Q 1587.939 -157.601 1577.302 -168.194 Q 1566.665 -178.787 1551.16 -178.787 Q 1539.261 -178.787 1528.624 -175.256 Q 1517.987 -171.725 1507.891 -163.654 Q 1511.136 -151.884 1511.136 -137.087 L 1511.136 -21.068 L 1459.213 -21.068 L 1459.213 -137.087 Q 1459.213 -157.601 1448.576 -168.194 Q 1437.939 -178.787 1422.795 -178.787 Q 1410.896 -178.787 1401.882 -174.92 Q 1392.867 -171.053 1383.132 -162.645 L 1383.132 -21.068 L 1331.209 -21.068 L 1331.209 -215.443 L 1383.132 -215.443 L 1383.132 -200.982 Q 1392.867 -209.726 1406.028 -215.106 Q 1419.189 -220.487 1432.891 -220.487 Q 1448.035 -220.487 1463.36 -214.097 Q 1478.684 -207.708 1490.223 -195.602 Q 1506.449 -209.053 1523.035 -214.77 Q 1539.621 -220.487 1559.453 -220.487 Q 1575.679 -220.487 1590.282 -215.947 Q 1604.886 -211.407 1615.703 -201.487 Q 1626.52 -191.566 1633.01 -176.265 Q 1639.501 -160.964 1639.501 -139.442 L 1639.501 -21.068 Z  M 1894.428 -118.592 Q 1894.428 -113.884 1893.887 -108.839 Q 1893.346 -103.795 1892.625 -98.414 L 1726.039 -98.414 Q 1728.924 -90.007 1734.152 -82.441 Q 1739.38 -74.874 1746.952 -69.326 Q 1754.524 -63.777 1764.08 -60.582 Q 1773.635 -57.387 1785.173 -57.387 Q 1799.236 -57.387 1813.298 -61.927 Q 1827.361 -66.467 1836.736 -74.202 L 1869.548 -43.6 Q 1847.913 -28.467 1827.18 -22.245 Q 1806.447 -16.024 1783.37 -16.024 Q 1759.933 -16.024 1739.561 -24.095 Q 1719.188 -32.166 1704.224 -45.954 Q 1689.26 -59.741 1680.606 -78.405 Q 1671.953 -97.069 1671.953 -118.255 Q 1671.953 -139.442 1680.606 -158.105 Q 1689.26 -176.769 1704.404 -190.557 Q 1719.549 -204.345 1739.741 -212.416 Q 1759.933 -220.487 1783.01 -220.487 Q 1805.005 -220.487 1825.197 -212.92 Q 1845.389 -205.354 1860.894 -191.902 Q 1876.399 -178.451 1885.413 -159.787 Q 1894.428 -141.123 1894.428 -118.592 L 1894.428 -118.592 Z  M 1839.981 -137.424 Q 1833.851 -155.92 1818.166 -167.185 Q 1802.481 -178.451 1782.649 -178.451 Q 1763.178 -178.451 1747.673 -167.185 Q 1732.169 -155.92 1726.039 -137.424 L 1839.981 -137.424 Z  M 2042.985 -25.44 Q 2035.052 -20.732 2024.595 -18.378 Q 2014.139 -16.024 2003.682 -16.024 Q 1985.293 -16.024 1972.672 -20.228 Q 1960.052 -24.431 1952.48 -33.175 Q 1944.908 -41.918 1941.483 -55.37 Q 1938.057 -68.821 1938.057 -86.981 L 1938.057 -172.061 L 1910.653 -172.061 L 1910.653 -193.92 Q 1935.894 -203.672 1951.579 -222.841 Q 1967.264 -242.009 1973.033 -272.611 L 1989.98 -272.611 L 1989.98 -215.779 L 2042.624 -215.779 L 2042.624 -172.061 L 1989.98 -172.061 L 1989.98 -83.618 Q 1989.98 -76.219 1991.963 -71.511 Q 1993.946 -66.803 1997.192 -64.113 Q 2000.437 -61.423 2004.583 -60.414 Q 2008.73 -59.405 2013.418 -59.405 Q 2019.547 -59.405 2028.201 -61.423 Q 2036.855 -63.441 2042.985 -68.149 L 2042.985 -25.44 L 2042.985 -25.44 Z  M 2262.214 -21.068 L 2210.292 -21.068 L 2210.292 -137.424 Q 2210.292 -147.849 2206.866 -155.751 Q 2203.441 -163.654 2197.852 -168.867 Q 2192.263 -174.079 2184.871 -176.601 Q 2177.479 -179.123 2169.547 -179.123 Q 2157.648 -179.123 2146.83 -175.761 Q 2136.013 -172.398 2125.917 -166.345 L 2125.917 -21.068 L 2073.634 -21.068 L 2073.634 -299.851 L 2125.917 -299.851 L 2125.917 -204.345 Q 2137.455 -212.752 2152.6 -216.788 Q 2167.744 -220.823 2181.806 -220.823 Q 2198.032 -220.823 2212.455 -215.947 Q 2226.878 -211.071 2238.056 -201.15 Q 2249.234 -191.23 2255.724 -176.265 Q 2262.214 -161.3 2262.214 -140.787 L 2262.214 -21.068 L 2262.214 -21.068 Z  M 2517.141 -118.592 Q 2517.141 -113.884 2516.6 -108.839 Q 2516.06 -103.795 2515.338 -98.414 L 2348.753 -98.414 Q 2351.637 -90.007 2356.865 -82.441 Q 2362.094 -74.874 2369.666 -69.326 Q 2377.238 -63.777 2386.793 -60.582 Q 2396.349 -57.387 2407.887 -57.387 Q 2421.949 -57.387 2436.012 -61.927 Q 2450.074 -66.467 2459.449 -74.202 L 2492.262 -43.6 Q 2470.627 -28.467 2449.894 -22.245 Q 2429.161 -16.024 2406.084 -16.024 Q 2382.647 -16.024 2362.274 -24.095 Q 2341.902 -32.166 2326.938 -45.954 Q 2311.974 -59.741 2303.32 -78.405 Q 2294.666 -97.069 2294.666 -118.255 Q 2294.666 -139.442 2303.32 -158.105 Q 2311.974 -176.769 2327.118 -190.557 Q 2342.262 -204.345 2362.454 -212.416 Q 2382.647 -220.487 2405.723 -220.487 Q 2427.719 -220.487 2447.911 -212.92 Q 2468.103 -205.354 2483.608 -191.902 Q 2499.112 -178.451 2508.127 -159.787 Q 2517.141 -141.123 2517.141 -118.592 Z  M 2462.694 -137.424 Q 2456.565 -155.92 2440.88 -167.185 Q 2425.195 -178.451 2405.363 -178.451 Q 2385.892 -178.451 2370.387 -167.185 Q 2354.882 -155.92 2348.753 -137.424 L 2462.694 -137.424 Z  M 2734.208 -21.068 L 2682.285 -21.068 L 2682.285 -35.865 Q 2677.237 -31.157 2670.566 -27.626 Q 2663.895 -24.095 2656.504 -21.573 Q 2649.112 -19.051 2641.359 -17.705 Q 2633.607 -16.36 2626.756 -16.36 Q 2610.891 -16.36 2596.287 -21.068 Q 2581.684 -25.776 2570.506 -35.529 Q 2559.329 -45.281 2552.658 -60.75 Q 2545.987 -76.219 2545.987 -97.406 L 2545.987 -215.443 L 2597.91 -215.443 L 2597.91 -99.76 Q 2597.91 -89.335 2601.336 -81.432 Q 2604.761 -73.529 2610.35 -68.317 Q 2615.939 -63.104 2623.331 -60.582 Q 2630.722 -58.06 2638.655 -58.06 Q 2663.895 -58.06 2682.285 -74.202 L 2682.285 -215.443 L 2734.208 -215.443 L 2734.208 -21.068 L 2734.208 -21.068 Z  M 2930 -75.547 Q 2930 -61.086 2922.788 -49.821 Q 2915.577 -38.555 2904.039 -30.989 Q 2892.5 -23.422 2878.077 -19.555 Q 2863.654 -15.688 2849.592 -15.688 Q 2825.794 -15.688 2805.782 -23.927 Q 2785.77 -32.166 2770.626 -50.325 L 2801.996 -79.919 Q 2811.371 -68.821 2823.63 -62.6 Q 2835.89 -56.378 2849.952 -56.378 Q 2862.212 -56.378 2870.325 -60.582 Q 2878.438 -64.786 2878.438 -73.193 Q 2878.438 -81.936 2866.899 -87.821 Q 2855.361 -93.706 2834.447 -99.423 Q 2822.188 -102.786 2810.65 -107.999 Q 2799.111 -113.211 2790.097 -120.778 Q 2781.082 -128.344 2775.674 -138.096 Q 2770.265 -147.849 2770.265 -160.628 Q 2770.265 -174.752 2777.296 -186.017 Q 2784.328 -197.283 2795.686 -204.849 Q 2807.044 -212.416 2821.467 -216.451 Q 2835.89 -220.487 2850.673 -220.487 Q 2898.269 -220.487 2928.558 -186.858 L 2897.548 -157.601 Q 2888.534 -168.026 2876.995 -174.079 Q 2865.457 -180.132 2851.755 -180.132 Q 2847.068 -180.132 2841.839 -178.955 Q 2836.611 -177.778 2832.104 -175.592 Q 2827.597 -173.407 2824.712 -169.876 Q 2821.827 -166.345 2821.827 -161.973 Q 2821.827 -154.238 2832.825 -148.521 Q 2843.823 -142.804 2864.375 -137.087 Q 2877.717 -133.388 2889.616 -127.671 Q 2901.515 -121.955 2910.529 -114.388 Q 2919.543 -106.822 2924.772 -97.237 Q 2930 -87.653 2930 -75.547 Z " fill="rgb(94,94,94)"/></g></g></g></g></svg>